<mxfile host="app.diagrams.net" modified="2023-08-19T11:52:22.994Z" agent="Mozilla/5.0 (Macintosh; Intel Mac OS X 10_15_7) AppleWebKit/537.36 (KHTML, like Gecko) Chrome/113.0.0.0 Safari/537.36" etag="EyS64uZQM5RJczIoz9B5" version="21.6.8" type="device">
  <diagram name="페이지-1" id="_1uaMSMSwXzbhYDLoaaR">
    <mxGraphModel dx="954" dy="488" grid="1" gridSize="10" guides="1" tooltips="1" connect="1" arrows="1" fold="1" page="1" pageScale="1" pageWidth="827" pageHeight="1169" math="0" shadow="0">
      <root>
        <mxCell id="0" />
        <mxCell id="1" parent="0" />
        <mxCell id="JO1kxoctvzsz9tgUlhMh-1" value="시작" style="ellipse;whiteSpace=wrap;html=1;" vertex="1" parent="1">
          <mxGeometry x="210" y="30" width="160" height="80" as="geometry" />
        </mxCell>
        <mxCell id="JO1kxoctvzsz9tgUlhMh-2" value="" style="endArrow=classic;html=1;rounded=0;exitX=0.5;exitY=1;exitDx=0;exitDy=0;" edge="1" parent="1" source="JO1kxoctvzsz9tgUlhMh-1">
          <mxGeometry width="50" height="50" relative="1" as="geometry">
            <mxPoint x="290" y="120" as="sourcePoint" />
            <mxPoint x="290" y="170" as="targetPoint" />
          </mxGeometry>
        </mxCell>
        <mxCell id="JO1kxoctvzsz9tgUlhMh-6" value="" style="edgeStyle=orthogonalEdgeStyle;rounded=0;orthogonalLoop=1;jettySize=auto;html=1;" edge="1" parent="1" source="JO1kxoctvzsz9tgUlhMh-3" target="JO1kxoctvzsz9tgUlhMh-4">
          <mxGeometry relative="1" as="geometry" />
        </mxCell>
        <mxCell id="JO1kxoctvzsz9tgUlhMh-3" value="별 수 11개,&amp;nbsp;&lt;br&gt;줄 수 1줄" style="rounded=0;whiteSpace=wrap;html=1;" vertex="1" parent="1">
          <mxGeometry x="220" y="170" width="140" height="70" as="geometry" />
        </mxCell>
        <mxCell id="JO1kxoctvzsz9tgUlhMh-11" value="" style="edgeStyle=orthogonalEdgeStyle;rounded=0;orthogonalLoop=1;jettySize=auto;html=1;" edge="1" parent="1" source="JO1kxoctvzsz9tgUlhMh-4" target="JO1kxoctvzsz9tgUlhMh-7">
          <mxGeometry relative="1" as="geometry" />
        </mxCell>
        <mxCell id="JO1kxoctvzsz9tgUlhMh-4" value="아이스크림바 표현하는 별 11개로 채워진 한 줄 추가" style="rounded=0;whiteSpace=wrap;html=1;" vertex="1" parent="1">
          <mxGeometry x="220" y="280" width="140" height="70" as="geometry" />
        </mxCell>
        <mxCell id="JO1kxoctvzsz9tgUlhMh-9" value="" style="edgeStyle=orthogonalEdgeStyle;rounded=0;orthogonalLoop=1;jettySize=auto;html=1;" edge="1" parent="1" source="JO1kxoctvzsz9tgUlhMh-7" target="JO1kxoctvzsz9tgUlhMh-8">
          <mxGeometry relative="1" as="geometry" />
        </mxCell>
        <mxCell id="JO1kxoctvzsz9tgUlhMh-15" style="edgeStyle=orthogonalEdgeStyle;rounded=0;orthogonalLoop=1;jettySize=auto;html=1;entryX=1;entryY=0.5;entryDx=0;entryDy=0;" edge="1" parent="1" source="JO1kxoctvzsz9tgUlhMh-7" target="JO1kxoctvzsz9tgUlhMh-12">
          <mxGeometry relative="1" as="geometry">
            <mxPoint x="430" y="640" as="targetPoint" />
            <Array as="points">
              <mxPoint x="390" y="420" />
              <mxPoint x="390" y="640" />
            </Array>
          </mxGeometry>
        </mxCell>
        <mxCell id="JO1kxoctvzsz9tgUlhMh-7" value="줄이 8줄이 넘는가?" style="rhombus;whiteSpace=wrap;html=1;" vertex="1" parent="1">
          <mxGeometry x="215" y="380" width="150" height="80" as="geometry" />
        </mxCell>
        <mxCell id="JO1kxoctvzsz9tgUlhMh-8" value="줄 수에 1 추가" style="rounded=0;whiteSpace=wrap;html=1;" vertex="1" parent="1">
          <mxGeometry x="230" y="500" width="120" height="60" as="geometry" />
        </mxCell>
        <mxCell id="JO1kxoctvzsz9tgUlhMh-12" value="끝" style="ellipse;whiteSpace=wrap;html=1;" vertex="1" parent="1">
          <mxGeometry x="210" y="600" width="160" height="80" as="geometry" />
        </mxCell>
        <mxCell id="JO1kxoctvzsz9tgUlhMh-14" value="NO" style="text;html=1;align=center;verticalAlign=middle;resizable=0;points=[];autosize=1;strokeColor=none;fillColor=none;" vertex="1" parent="1">
          <mxGeometry x="250" y="460" width="40" height="30" as="geometry" />
        </mxCell>
        <mxCell id="JO1kxoctvzsz9tgUlhMh-16" value="YES" style="text;html=1;align=center;verticalAlign=middle;resizable=0;points=[];autosize=1;strokeColor=none;fillColor=none;" vertex="1" parent="1">
          <mxGeometry x="360" y="390" width="50" height="30" as="geometry" />
        </mxCell>
        <mxCell id="JO1kxoctvzsz9tgUlhMh-17" value="시작" style="ellipse;whiteSpace=wrap;html=1;" vertex="1" parent="1">
          <mxGeometry x="460" y="30" width="160" height="80" as="geometry" />
        </mxCell>
        <mxCell id="JO1kxoctvzsz9tgUlhMh-18" value="" style="endArrow=classic;html=1;rounded=0;exitX=0.5;exitY=1;exitDx=0;exitDy=0;" edge="1" parent="1" source="JO1kxoctvzsz9tgUlhMh-17">
          <mxGeometry width="50" height="50" relative="1" as="geometry">
            <mxPoint x="540" y="120" as="sourcePoint" />
            <mxPoint x="540" y="170" as="targetPoint" />
          </mxGeometry>
        </mxCell>
        <mxCell id="JO1kxoctvzsz9tgUlhMh-19" value="" style="edgeStyle=orthogonalEdgeStyle;rounded=0;orthogonalLoop=1;jettySize=auto;html=1;" edge="1" parent="1" source="JO1kxoctvzsz9tgUlhMh-20" target="JO1kxoctvzsz9tgUlhMh-22">
          <mxGeometry relative="1" as="geometry" />
        </mxCell>
        <mxCell id="JO1kxoctvzsz9tgUlhMh-20" value="아이스크림 바를 표현하는 문자열 1줄" style="rounded=0;whiteSpace=wrap;html=1;" vertex="1" parent="1">
          <mxGeometry x="470" y="170" width="140" height="70" as="geometry" />
        </mxCell>
        <mxCell id="JO1kxoctvzsz9tgUlhMh-21" value="" style="edgeStyle=orthogonalEdgeStyle;rounded=0;orthogonalLoop=1;jettySize=auto;html=1;" edge="1" parent="1" source="JO1kxoctvzsz9tgUlhMh-22" target="JO1kxoctvzsz9tgUlhMh-25">
          <mxGeometry relative="1" as="geometry" />
        </mxCell>
        <mxCell id="JO1kxoctvzsz9tgUlhMh-22" value="&quot;| |&quot; 한 줄 추가&amp;nbsp;" style="rounded=0;whiteSpace=wrap;html=1;" vertex="1" parent="1">
          <mxGeometry x="470" y="280" width="140" height="70" as="geometry" />
        </mxCell>
        <mxCell id="JO1kxoctvzsz9tgUlhMh-23" value="" style="edgeStyle=orthogonalEdgeStyle;rounded=0;orthogonalLoop=1;jettySize=auto;html=1;" edge="1" parent="1" source="JO1kxoctvzsz9tgUlhMh-25" target="JO1kxoctvzsz9tgUlhMh-26">
          <mxGeometry relative="1" as="geometry" />
        </mxCell>
        <mxCell id="JO1kxoctvzsz9tgUlhMh-24" style="edgeStyle=orthogonalEdgeStyle;rounded=0;orthogonalLoop=1;jettySize=auto;html=1;entryX=1;entryY=0.5;entryDx=0;entryDy=0;" edge="1" parent="1" source="JO1kxoctvzsz9tgUlhMh-25" target="JO1kxoctvzsz9tgUlhMh-27">
          <mxGeometry relative="1" as="geometry">
            <mxPoint x="680" y="640" as="targetPoint" />
            <Array as="points">
              <mxPoint x="640" y="420" />
              <mxPoint x="640" y="640" />
            </Array>
          </mxGeometry>
        </mxCell>
        <mxCell id="JO1kxoctvzsz9tgUlhMh-25" value="줄이 4줄이 넘는가?" style="rhombus;whiteSpace=wrap;html=1;" vertex="1" parent="1">
          <mxGeometry x="465" y="380" width="150" height="80" as="geometry" />
        </mxCell>
        <mxCell id="JO1kxoctvzsz9tgUlhMh-26" value="줄 수에 1 추가" style="rounded=0;whiteSpace=wrap;html=1;" vertex="1" parent="1">
          <mxGeometry x="480" y="500" width="120" height="60" as="geometry" />
        </mxCell>
        <mxCell id="JO1kxoctvzsz9tgUlhMh-27" value="끝" style="ellipse;whiteSpace=wrap;html=1;" vertex="1" parent="1">
          <mxGeometry x="460" y="600" width="160" height="80" as="geometry" />
        </mxCell>
        <mxCell id="JO1kxoctvzsz9tgUlhMh-28" value="NO" style="text;html=1;align=center;verticalAlign=middle;resizable=0;points=[];autosize=1;strokeColor=none;fillColor=none;" vertex="1" parent="1">
          <mxGeometry x="500" y="460" width="40" height="30" as="geometry" />
        </mxCell>
        <mxCell id="JO1kxoctvzsz9tgUlhMh-29" value="YES" style="text;html=1;align=center;verticalAlign=middle;resizable=0;points=[];autosize=1;strokeColor=none;fillColor=none;" vertex="1" parent="1">
          <mxGeometry x="610" y="390" width="50" height="30" as="geometry" />
        </mxCell>
      </root>
    </mxGraphModel>
  </diagram>
</mxfile>
